# xmcd
#
# Track frame offsets:
#	150
#	15100
#	31295
#	44339
#	59109
#	70720
#	89230
#	103446
#	112981
#	127700
#	143506
#	161591
#	186206
#
# Disc length: 4333 seconds
#
# Revision: 1
# Processed by: cddbd v1.5.2PL0 Copyright (c) Steve Scherf et al.
# Submitted via: audiograbber 1.83.01
#
DISCID=ad10eb0d
DTITLE=RANAS Duo Porteño de Tango - el Limonero Real
DYEAR=1900
DGENRE=Tango
TTITLE0=A la Guardia Nueva (Anibal Troilo)
TTITLE1=Nostálgico (Julián Plaza)
TTITLE2=Un Placer (Juan Caruso y Vincente Romeo)
TTITLE3=Passaje Natal (Leandro Schnaider)
TTITLE4=Loca (Manuel Joves y Romero)
TTITLE5=A Baño Maria (Pablo Schiaffino)
TTITLE6=BB (Berlingheri Baffa)
TTITLE7=La Puñalada (Pintin Castellanos)
TTITLE8=El Flete (Vicente Greco)
TTITLE9=Viejo Ciego (Manzi-Cátulo Castillo-Piana)
TTITLE10=La Cumparsita (Gerardo Matos Rodrigues)
TTITLE11=La Muerte del Angel (Astor Piazzolla)
TTITLE12=Daten-CD
EXTD=
EXTT0=
EXTT1=
EXTT2=
EXTT3=
EXTT4=
EXTT5=
EXTT6=
EXTT7=
EXTT8=
EXTT9=
EXTT10=
EXTT11=
EXTT12=
PLAYORDER=
